PathFileType	4	(X/Y/Z)	..\data\2014050\dynamic\2014050_C5_05.trc
DataRate	CameraRate	NumFrames	NumMarkers	Units	OrigDataRate	OrigDataStartFrame	OrigNumFrames
100.000000	100.000000	4	52	mm	100.000000	17	142
Frame#	Time	L_IAS			L_IPS			R_IPS			R_IAS			L_FTC			L_FLE			L_FME			L_FAX			L_TTC			L_FAL			L_TAM			L_FCC			L_FM1			L_FM2			L_FM5			R_FTC			R_FLE			R_FME			R_FAX			R_TTC			R_FAL			R_TAM			R_FCC			R_FM1			R_FM2			R_FM5			CV7			TV10			SXS			SJN			L_SIA			L_SRS			L_SAA			L_SAE			L_HLE			L_HME			L_UOA			L_RSP			L_UHE			L_HM2			L_HM5			R_SIA			R_SRS			R_SAA			R_SAE			R_HLE			R_HME			R_UOA			R_RSP			R_UHE			R_HM2			R_HM5			
		X1	Y1	Z1	X2	Y2	Z2	X3	Y3	Z3	X4	Y4	Z4	X5	Y5	Z5	X6	Y6	Z6	X7	Y7	Z7	X8	Y8	Z8	X9	Y9	Z9	X10	Y10	Z10	X11	Y11	Z11	X12	Y12	Z12	X13	Y13	Z13	X14	Y14	Z14	X15	Y15	Z15	X16	Y16	Z16	X17	Y17	Z17	X18	Y18	Z18	X19	Y19	Z19	X20	Y20	Z20	X21	Y21	Z21	X22	Y22	Z22	X23	Y23	Z23	X24	Y24	Z24	X25	Y25	Z25	X26	Y26	Z26	X27	Y27	Z27	X28	Y28	Z28	X29	Y29	Z29	X30	Y30	Z30	X31	Y31	Z31	X32	Y32	Z32	X33	Y33	Z33	X34	Y34	Z34	X35	Y35	Z35	X36	Y36	Z36	X37	Y37	Z37	X38	Y38	Z38	X39	Y39	Z39	X40	Y40	Z40	X41	Y41	Z41	X42	Y42	Z42	X43	Y43	Z43	X44	Y44	Z44	X45	Y45	Z45	X46	Y46	Z46	X47	Y47	Z47	X48	Y48	Z48	X49	Y49	Z49	X50	Y50	Z50	X51	Y51	Z51	X52	Y52	Z52	

18	0.17	104.9235534667969	876.6575317382815	-297.6017456054688	-103.1769256591797	889.3284301757815	-272.3354492187501	-115.7625198364258	880.5132446289065	-162.5772857666016	78.22616577148439	864.5952758789065	-90.06605529785158	66.72890472412111	801.1960449218752	-396.5831298828126	163.25048828125	426.7125244140626	-336.0405883789063	183.7960205078125	437.3013305664064	-204.2683258056641	146.106430053711	365.2789611816407	-334.5408020019532	201.9777221679688	363.4584350585938	-280.0456542968751	125.8219146728516	59.82910919189455	-275.6117248535157	139.5193023681641	68.38648223876955	-190.0087280273438	74.68331146240236	16.16350555419922	-222.8064117431641	250.3293609619141	16.42229843139649	-198.4406280517579	259.9923400878907	31.38439369201661	-252.0116271972657	215.5159454345704	9.515598297119142	-303.6429748535157	-10.75861263275147	761.6057739257814	-9.929297447204592	-35.07308959960938	404.7378845214845	-37.70072937011719	3.225273370742799	384.058807373047	-170.030746459961	-88.44834899902345	380.8072509765626	-35.62950134277344	-33.27666091918946	326.3113403320313	-82.15569305419923	-345.6524047851563	198.5749816894532	-99.24159240722659	-310.7307128906251	180.0905303955078	-180.5208892822266	-387.065155029297	216.9212951660157	-156.2329711914063	-338.5715637207032	51.51010894775392	-181.329330444336	-321.7742614746094	53.98804092407228	-125.1882400512696	-358.3266906738282	79.54083251953126	-79.87164306640626	-28.03290367126466	1361.850219726563	-226.7211456298829	-115.8508529663086	1142.6767578125	-215.0620269775391	107.9704360961914	1039.3525390625	-212.8736724853516	80.72152709960939	1269.075927734375	-220.0584106445313	-115.6959838867188	1176.881713867188	-299.0827331542969	-70.84248352050783	1288.848876953125	-316.9507446289063	-20.16923332214356	1295.979370117188	-382.3668518066407	26.03366470336915	1291.379638671875	-396.533660888672	-113.7869262695313	1032.642700195313	-471.1155090332032	-167.5572357177735	1044.158203125	-403.6643066406251	-160.3031768798828	1023.663879394531	-458.8986206054689	-171.3982086181641	801.2224121093752	-434.0220336914064	-192.8623046875001	824.3503417968752	-499.3755187988282	-214.1007537841797	732.4974975585939	-423.627410888672	-247.7241973876954	780.3725585937502	-498.6956787109376	-120.7673950195313	1202.625366210938	-132.4387817382813	-74.54616546630861	1307.244873046875	-132.797592163086	-18.53269577026368	1314.063354492188	-61.16051101684572	32.07612228393555	1314.727661132813	-67.32295989990236	122.2803573608399	1044.194580078125	49.17059707641603	80.19524383544923	998.111267089844	-5.496830463409425	106.4052124023438	990.6171875000002	38.28692626953126	320.4720458984376	959.930358886719	-24.05707550048829	291.4745178222657	907.9087524414065	13.95567226409912	397.3753356933595	937.236267089844	-30.34141731262208	348.0242614746094	856.8775634765627	-3.574075222015382	
19	0.18	119.3557739257813	878.5403442382815	-299.2216186523438	-88.6998977661133	891.515808105469	-271.7955627441407	-100.6615524291992	881.5159301757815	-162.1228942871094	93.30901336669923	865.4544067382815	-90.8803176879883	78.39823150634767	802.704772949219	-398.081756591797	168.3426208496094	425.750213623047	-337.1334838867188	191.1088562011719	436.5232543945314	-205.3675537109376	149.9828491210938	364.7645874023438	-335.4040527343751	207.0183715820313	362.1283874511719	-281.5370788574219	126.0295028686524	59.92594146728517	-275.4900207519532	139.9360809326172	68.48909759521486	-189.855697631836	74.88174438476564	16.31647682189942	-222.7251586914063	250.3253021240235	16.62517166137696	-198.2840728759766	260.1388854980469	31.55842971801759	-252.0666503906251	215.5409698486329	9.96405601501465	-304.0087280273438	6.77214288711548	761.6434936523439	-11.14215850830078	-5.272557258605958	404.8231201171876	-37.24436187744141	33.0741195678711	383.9736938476563	-169.9015197753907	-57.97613906860353	381.2799377441407	-35.17015075683594	-3.260638475418092	326.8918457031251	-81.76222229003908	-317.3338317871094	202.5255126953126	-98.67726135253909	-282.1438293457032	182.5923919677735	-179.6900482177735	-359.3192138671876	219.1009521484376	-156.2766723632813	-307.7345886230469	53.60109329223634	-175.5585632324219	-291.5330505371094	57.5224075317383	-119.8139038085938	-328.1204223632813	85.1919403076172	-75.67344665527345	-11.82161903381348	1363.805908203125	-227.0282897949219	-99.77250671386722	1144.802856445313	-215.8255767822266	123.2738647460938	1040.737548828125	-211.9450836181641	96.56986236572268	1270.357666015625	-219.3314666748047	-99.21602630615237	1179.066040039063	-300.2788085937501	-54.27970123291017	1290.946411132813	-317.5055541992188	-3.306005477905274	1297.476440429688	-382.8129577636719	43.27364349365235	1292.87646484375	-396.4443359375001	-89.60298156738283	1030.505249023438	-471.9690856933595	-143.7598876953125	1039.568115234375	-405.0389099121095	-135.9124450683594	1019.767517089844	-459.8492431640626	-138.58154296875	796.7731933593752	-435.5780334472657	-161.0851745605469	819.4121093750002	-500.6030883789064	-177.0621337890625	725.2602539062501	-426.479949951172	-213.142562866211	772.5557861328127	-500.9266662597657	-105.2152862548828	1204.772827148438	-133.2001342773438	-58.6169776916504	1309.24072265625	-133.1222686767578	-3.027210474014283	1315.394165039063	-61.46507644653322	47.84693908691407	1316.133911132813	-66.7943572998047	131.1672058105469	1042.318237304688	48.47626876831056	88.94146728515626	997.951354980469	-7.109170436859133	113.8414840698242	989.2703857421877	37.32455444335938	327.4347229003907	950.4448242187502	-22.8038387298584	295.7648010253907	899.5029907226565	15.08539581298828	403.2569580078126	924.339294433594	-28.59148025512696	350.5744628906251	846.5017089843752	-1.73854947090149	
20	0.19	133.5529327392578	880.4934692382815	-300.8730468750001	-74.19487762451173	893.8447265625002	-271.4295349121094	-85.58995819091798	883.022888183594	-161.9839477539063	108.3008728027344	866.8579101562502	-91.67771911621095	89.52288055419923	804.0425415039065	-399.5842895507814	172.6615753173828	424.8339233398439	-338.0702209472657	197.2229614257813	435.507537841797	-206.2572784423829	153.0518341064453	364.2423095703126	-336.1404113769532	211.2264404296876	360.8269653320313	-282.8621215820313	126.1592330932617	60.02046203613283	-275.4556579589844	140.2738952636719	68.59250640869142	-189.7862091064453	75.08794403076173	16.41073036193848	-222.679183959961	250.3235931396485	17.09928894042969	-198.2068786621094	260.1992187500001	31.95008087158204	-252.1715087890626	215.6186676025391	10.45556545257569	-304.2655334472657	24.06749534606934	762.3095703125001	-12.34563636779786	24.48950004577637	405.9302673339845	-37.18498611450196	62.71925735473634	384.9720153808595	-170.1534729003907	-27.61922264099122	382.5559997558594	-35.28333282470704	27.09794807434083	328.3688964843751	-81.65232086181642	-287.4810791015626	204.8605957031251	-98.11325836181643	-251.942367553711	183.9657287597657	-178.9319152832032	-330.4054260253907	219.0415802001954	-156.177490234375	-273.2811584472657	54.59788131713869	-169.9599609375	-257.7478637695313	60.70659637451173	-114.6463165283203	-294.5699462890626	89.37265777587892	-71.68850708007814	4.102625846862794	1365.917114257813	-227.1996459960938	-83.87387084960939	1147.074584960938	-216.5477600097657	138.4942626953125	1042.362548828125	-210.9677734375001	112.2238464355469	1271.90869140625	-218.6078338623047	-82.96187591552736	1181.489379882813	-301.3912963867188	-38.00495147705079	1293.307861328125	-317.8981018066407	13.22441768646241	1299.285278320313	-383.0732116699219	60.14561080932619	1294.715087890625	-396.200897216797	-65.16875457763673	1028.69140625	-472.6548461914064	-119.419548034668	1034.951416015625	-406.1231994628907	-111.1101455688477	1015.986450195313	-460.5034790039064	-104.5028228759766	792.7556152343752	-437.1121520996095	-128.3348236083985	814.828308105469	-501.6971435546876	-138.2109527587891	718.5719604492189	-429.4015502929689	-177.2646484375	765.0435180664064	-502.9395751953126	-89.83993530273439	1206.940551757813	-133.9256591796875	-42.91647720336915	1311.274780273438	-133.3462982177735	11.95357322692871	1316.837890625	-61.72923278808595	63.27706909179689	1317.700073242188	-66.04942321777345	138.6034088134766	1040.760498046875	47.85612869262696	96.38469696044925	998.1328125000002	-8.856639862060549	120.477035522461	988.1187744140627	36.2638053894043	333.2338562011719	940.4057617187502	-21.28106117248536	298.6816101074219	890.784851074219	16.46675300598145	407.739227294922	910.578796386719	-26.46605491638184	351.4752502441407	835.655944824219	0.4911004900932313	
21	0.2	147.5628356933594	882.4854125976565	-302.5198974609376	-59.61865234375001	896.2890625000002	-271.2351379394532	-70.50447082519533	885.005065917969	-162.1311187744141	123.2585220336914	868.8008422851565	-92.49877166748048	100.2703704833985	805.2484130859377	-401.0269470214845	176.4393768310547	424.0209960937501	-338.8110351562501	202.2289276123047	434.3298645019532	-206.9139862060547	155.576644897461	363.7546386718751	-336.7204284667969	214.7333221435547	359.5941772460938	-283.9350585937501	126.2393188476563	60.10633468627931	-275.4930725097657	140.5428314208985	68.6736297607422	-189.7851715087891	75.27620697021486	16.46961975097657	-222.6685791015626	250.3328704833985	17.69227600097657	-198.1944885253907	260.2069396972657	32.42427444458009	-252.3096618652344	215.7338256835938	10.90047264099121	-304.4304809570313	41.12474441528321	763.5673217773439	-13.53262996673584	54.09811782836915	408.0219116210939	-37.50841522216798	92.09226989746095	387.018280029297	-170.7424774169922	2.489150047302247	384.5881347656251	-35.93787002563477	57.68256759643556	330.7013854980469	-81.79710388183595	-256.2122497558594	205.4390411376954	-97.50865173339847	-220.2498474121094	184.1068572998047	-178.2063903808594	-300.3664245605469	216.7344512939454	-155.8612670898438	-235.6365051269532	54.53145217895509	-164.7821655273438	-220.7986907958985	63.35115814208986	-109.9316101074219	-258.0411071777344	91.9033660888672	-68.05835723876955	19.7704029083252	1368.150634765625	-227.2466430664063	-68.14569091796876	1149.455444335938	-217.2305908203126	153.6467437744141	1044.207763671875	-209.9827575683594	127.7181930541992	1273.723510742188	-217.9471740722657	-66.92945861816408	1184.115966796875	-302.4186401367188	-22.00349426269532	1295.897094726563	-318.1513977050782	29.43882560729981	1301.379638671875	-383.1700439453126	76.65604400634767	1296.874389648438	-395.8303527832032	-40.53480529785157	1027.246826171875	-473.1684875488282	-94.56339263916017	1030.429931640625	-406.8775634765626	-85.93759155273439	1012.390075683594	-460.8464355468751	-69.25737762451173	789.3472290039065	-438.604705810547	-94.71262359619142	810.7431640625002	-502.6285705566407	-97.67307281494143	712.7322387695314	-432.3721923828126	-140.2158203125	758.0522460937501	-504.6676330566407	-74.60975646972658	1209.099609375	-134.6299438476563	-27.41923713684083	1313.314086914063	-133.4987487792969	26.48753166198731	1318.375244140625	-61.97974014282228	78.38637542724611	1319.412475585938	-65.14141082763673	144.9144134521485	1039.455200195313	47.25571823120118	102.7917785644532	998.6428833007815	-10.69444847106934	126.3795166015625	987.2204589843752	35.10833740234376	337.7849426269532	929.9410400390627	-19.51732826232911	300.2183837890626	881.9204101562502	18.06390953063965	410.7403259277345	896.187683105469	-23.99171257019043	350.7088012695313	824.5422973632815	3.060945510864259	
